<svg version="1.1" id="Layer_1" xmlns="http://www.w3.org/2000/svg" xmlns:xlink="http://www.w3.org/1999/xlink" x="0px" y="0px"
	 width="100%" viewBox="0 0 202 176" enable-background="new 0 0 202 176" xml:space="preserve">
<path fill="none" opacity="0" stroke="none"
	d="
M1.000001,81.000000 
	C1.000000,54.398663 1.000000,27.797323 1.000000,1.000000 
	C33.687302,1.000000 66.374992,1.000000 99.874619,1.258018 
	C97.693069,4.295884 96.589874,7.687330 96.948944,11.765095 
	C97.210434,14.734758 96.812599,17.759855 97.033035,20.736216 
	C97.913750,32.627777 96.808815,43.935272 90.072144,54.392376 
	C87.678963,58.107231 87.921532,62.981110 91.265747,66.746086 
	C94.447853,70.328568 97.832840,73.730843 101.289291,77.382072 
	C104.052757,74.554764 106.263100,72.054543 108.718758,69.824440 
	C117.054794,62.254105 116.036201,57.153904 110.211037,47.958855 
	C106.645241,42.330200 104.866547,36.870232 104.803162,30.141460 
	C104.711723,20.434349 107.009598,10.483767 103.000000,1.000000 
	C136.307816,1.000000 169.615631,1.000000 202.961731,1.000000 
	C202.961731,59.596222 202.961731,118.192474 202.961731,176.894363 
	C135.788788,176.894363 68.577347,176.894363 1.000000,176.894363 
	C1.000000,145.980072 1.000000,114.958694 1.276088,83.128059 
	C2.131663,83.429626 2.628469,84.593712 3.304063,85.642639 
	C7.679564,92.436089 11.323192,99.904922 16.686920,105.807259 
	C23.707495,113.532822 33.636257,117.192726 43.610481,119.706924 
	C52.578426,121.967453 61.889156,122.866562 70.859619,125.119102 
	C80.030449,127.421967 88.971306,130.640640 98.000015,133.454407 
	C98.000015,129.646454 97.732933,124.991966 98.064522,120.380516 
	C98.526863,113.950607 95.093056,109.670624 90.470573,106.294456 
	C87.777321,104.327362 84.465103,102.739677 81.210304,102.091675 
	C68.152077,99.491898 54.983398,97.452507 41.901566,94.964050 
	C28.707262,92.454224 15.059196,91.140450 4.181794,81.843788 
	C3.429983,81.201233 2.074665,81.264801 1.000001,81.000000 
M118.453629,173.001190 
	C121.218208,173.001190 123.982788,173.001190 126.999939,173.001190 
	C126.999939,169.378326 126.988548,166.403397 127.002228,163.428574 
	C127.034698,156.363907 128.798431,153.857086 135.682541,151.769852 
	C144.506882,149.094360 153.530243,147.005844 162.207108,143.929092 
	C176.463989,138.873688 186.023666,128.850800 190.743317,114.435997 
	C191.589005,111.853127 191.658844,109.016220 192.086929,106.296608 
	C186.192749,111.958153 180.059677,116.097221 172.713699,118.005165 
	C155.462494,122.485764 138.131546,126.658562 120.848434,131.017624 
	C113.531807,132.862991 106.623047,136.339798 105.295837,144.163300 
	C103.715034,153.481735 104.065414,163.127762 103.560204,173.001190 
	C108.872673,173.001190 113.170403,173.001190 118.453629,173.001190 
M190.032852,101.454498 
	C194.581924,95.452858 198.802399,89.294579 200.201141,80.966942 
	C187.850418,89.991791 174.190628,92.798157 160.309830,95.010231 
	C148.084717,96.958443 135.710739,98.338173 123.729424,101.294044 
	C117.865547,102.740707 111.488571,106.096466 107.579269,110.550316 
	C101.581245,117.383820 104.228218,126.541481 104.146446,135.339706 
	C106.666885,133.911942 108.328888,132.891708 110.058586,132.003311 
	C121.837334,125.953606 134.824738,124.362045 147.583649,122.042381 
	C163.434479,119.160583 178.427765,114.677765 190.032852,101.454498 
M96.993874,144.852081 
	C95.187569,139.094009 92.071632,134.543152 85.844948,132.943344 
	C76.759598,130.609070 67.608650,128.509827 58.587006,125.952827 
	C46.303432,122.471283 33.980930,119.032646 21.957651,114.777313 
	C17.619766,113.242035 14.098428,109.399628 10.020886,106.478531 
	C10.020886,107.698776 9.840101,108.732994 10.047960,109.682098 
	C13.246060,124.284943 21.223984,135.673294 34.853432,141.733688 
	C44.233803,145.904709 54.482098,148.202728 64.449379,150.950027 
	C72.475647,153.162338 74.992500,155.982605 74.999756,164.320099 
	C75.002167,167.095413 75.000137,169.870712 75.000137,172.682892 
	C82.943596,172.682892 90.326607,172.682892 98.386269,172.682892 
	C97.912148,163.453262 97.455696,154.567612 96.993874,144.852081 
M79.998917,26.950653 
	C80.346306,24.086971 78.086655,22.344639 76.346748,23.306791 
	C74.359108,24.405949 72.212746,27.342577 72.177162,29.514208 
	C71.866661,48.461365 71.840073,67.419334 72.200935,86.365105 
	C72.259102,89.419090 73.812469,93.729233 76.118874,95.211411 
	C82.660316,99.415215 89.950104,102.454552 97.532486,106.246094 
	C99.952499,93.266541 101.193741,82.150291 90.356483,73.814445 
	C89.049797,72.809372 88.112946,71.316612 86.790268,70.340401 
	C81.152397,66.179337 80.035828,60.213448 80.008987,53.803734 
	C79.972786,45.158878 79.999893,36.513756 79.998917,26.950653 
M113.944405,72.541924 
	C108.892761,75.658882 104.869232,79.921577 104.176491,85.823586 
	C103.447540,92.034157 104.013237,98.396683 104.013237,104.678955 
	C110.727455,104.826897 124.636749,98.294922 128.173080,93.286057 
	C129.130844,91.929482 129.913681,90.096436 129.923218,88.477058 
	C130.040695,68.521896 129.912247,48.565044 130.084885,28.610682 
	C130.113968,25.248587 128.720444,23.181110 125.853027,23.273071 
	C122.939339,23.366518 121.815231,25.702248 121.913857,28.916965 
	C122.168724,37.224083 121.546875,45.576214 122.131927,53.849781 
	C122.671242,61.476582 120.440514,67.411873 113.944405,72.541924 
z"/>
<path fill="#000000" opacity="1.000000" stroke="none"
	d="
M1.000001,81.333328 
	C2.074665,81.264801 3.429983,81.201233 4.181794,81.843788 
	C15.059196,91.140450 28.707262,92.454224 41.901566,94.964050 
	C54.983398,97.452507 68.152077,99.491898 81.210304,102.091675 
	C84.465103,102.739677 87.777321,104.327362 90.470573,106.294456 
	C95.093056,109.670624 98.526863,113.950607 98.064522,120.380516 
	C97.732933,124.991966 98.000015,129.646454 98.000015,133.454407 
	C88.971306,130.640640 80.030449,127.421967 70.859619,125.119102 
	C61.889156,122.866562 52.578426,121.967453 43.610481,119.706924 
	C33.636257,117.192726 23.707495,113.532822 16.686920,105.807259 
	C11.323192,99.904922 7.679564,92.436089 3.304063,85.642639 
	C2.628469,84.593712 2.131663,83.429626 1.276088,82.659401 
	C1.000000,82.555557 1.000000,82.111107 1.000001,81.333328 
M37.820393,103.922943 
	C33.019054,102.667870 28.217716,101.412804 23.416376,100.157730 
	C25.614141,102.418579 27.875061,104.891396 30.639685,105.758812 
	C42.341404,109.430313 54.143585,112.812210 66.006699,115.928177 
	C74.137741,118.063866 82.429733,119.586807 90.566963,121.365562 
	C89.389977,116.354103 86.169640,113.033844 81.212387,112.037857 
	C67.068291,109.196114 52.864605,106.650925 37.820393,103.922943 
z"/>
<path fill="#000000" opacity="1.000000" stroke="none"
	d="
M102.625000,1.000000 
	C107.009598,10.483767 104.711723,20.434349 104.803162,30.141460 
	C104.866547,36.870232 106.645241,42.330200 110.211037,47.958855 
	C116.036201,57.153904 117.054794,62.254105 108.718758,69.824440 
	C106.263100,72.054543 104.052757,74.554764 101.289291,77.382072 
	C97.832840,73.730843 94.447853,70.328568 91.265747,66.746086 
	C87.921532,62.981110 87.678963,58.107231 90.072144,54.392376 
	C96.808815,43.935272 97.913750,32.627777 97.033035,20.736216 
	C96.812599,17.759855 97.210434,14.734758 96.948944,11.765095 
	C96.589874,7.687330 97.693069,4.295884 100.343277,1.258018 
	C100.750000,1.000000 101.500000,1.000000 102.625000,1.000000 
M105.675598,63.862404 
	C109.689674,57.068615 103.855576,52.743652 101.490707,46.937187 
	C99.626633,50.285091 97.515816,53.063927 96.482262,56.198021 
	C95.288902,59.816700 95.408241,63.377567 99.374382,66.055077 
	C102.478279,68.150490 103.456078,65.806694 105.675598,63.862404 
z"/>
<path fill="#000000" opacity="1.000000" stroke="none"
	d="
M117.960876,173.001190 
	C113.170403,173.001190 108.872673,173.001190 103.560204,173.001190 
	C104.065414,163.127762 103.715034,153.481735 105.295837,144.163300 
	C106.623047,136.339798 113.531807,132.862991 120.848434,131.017624 
	C138.131546,126.658562 155.462494,122.485764 172.713699,118.005165 
	C180.059677,116.097221 186.192749,111.958153 192.086929,106.296608 
	C191.658844,109.016220 191.589005,111.853127 190.743317,114.435997 
	C186.023666,128.850800 176.463989,138.873688 162.207108,143.929092 
	C153.530243,147.005844 144.506882,149.094360 135.682541,151.769852 
	C128.798431,153.857086 127.034698,156.363907 127.002228,163.428574 
	C126.988548,166.403397 126.999939,169.378326 126.999939,173.001190 
	C123.982788,173.001190 121.218208,173.001190 117.960876,173.001190 
M173.163391,127.009468 
	C172.252884,127.339294 171.364960,127.765762 170.428497,127.984474 
	C156.061890,131.339874 141.744919,134.941071 127.297218,137.903870 
	C118.139435,139.781876 113.136528,142.901520 112.181862,150.058609 
	C111.534676,154.910522 112.058319,159.918625 112.058319,164.690323 
	C116.704338,165.605423 119.282814,165.077774 119.165634,159.787872 
	C118.956627,150.352386 125.085335,146.584106 133.424332,144.817612 
	C139.435776,143.544174 145.329041,141.689453 151.241791,139.979095 
	C159.878708,137.480728 168.265060,134.458878 175.113754,127.310341 
	C175.282150,126.970657 175.450562,126.630974 175.618973,126.291290 
	C175.054642,126.500542 174.490295,126.709793 173.163391,127.009468 
z"/>
<path fill="#000000" opacity="1.000000" stroke="none"
	d="
M189.785339,101.713974 
	C178.427765,114.677765 163.434479,119.160583 147.583649,122.042381 
	C134.824738,124.362045 121.837334,125.953606 110.058586,132.003311 
	C108.328888,132.891708 106.666885,133.911942 104.146446,135.339706 
	C104.228218,126.541481 101.581245,117.383820 107.579269,110.550316 
	C111.488571,106.096466 117.865547,102.740707 123.729424,101.294044 
	C135.710739,98.338173 148.084717,96.958443 160.309830,95.010231 
	C174.190628,92.798157 187.850418,89.991791 200.201141,80.966942 
	C198.802399,89.294579 194.581924,95.452858 189.785339,101.713974 
M156.537384,105.001686 
	C152.365936,105.668106 148.166458,106.195381 144.028809,107.029503 
	C135.022354,108.845154 125.451508,108.758736 117.434593,114.026039 
	C115.009285,115.619530 113.305649,118.311424 111.271454,120.500198 
	C126.616386,118.058716 141.031372,115.284691 155.299271,111.892044 
	C163.340393,109.980003 171.192642,107.157837 178.762436,100.601425 
	C170.695602,102.263481 164.057846,103.631088 156.537384,105.001686 
z"/>
<path fill="#000000" opacity="1.000000" stroke="none"
	d="
M96.996559,145.267029 
	C97.455696,154.567612 97.912148,163.453262 98.386269,172.682892 
	C90.326607,172.682892 82.943596,172.682892 75.000137,172.682892 
	C75.000137,169.870712 75.002167,167.095413 74.999756,164.320099 
	C74.992500,155.982605 72.475647,153.162338 64.449379,150.950027 
	C54.482098,148.202728 44.233803,145.904709 34.853432,141.733688 
	C21.223984,135.673294 13.246060,124.284943 10.047960,109.682098 
	C9.840101,108.732994 10.020886,107.698776 10.020886,106.478531 
	C14.098428,109.399628 17.619766,113.242035 21.957651,114.777313 
	C33.980930,119.032646 46.303432,122.471283 58.587006,125.952827 
	C67.608650,128.509827 76.759598,130.609070 85.844948,132.943344 
	C92.071632,134.543152 95.187569,139.094009 96.996559,145.267029 
M27.843763,126.375969 
	C27.390873,126.325150 26.937983,126.274330 26.485090,126.223518 
	C26.756725,126.704575 27.028360,127.185638 27.748421,128.175766 
	C33.326633,131.448837 38.591152,135.555237 44.556198,137.800644 
	C53.622616,141.213531 63.242340,143.125107 72.494614,146.087921 
	C77.714958,147.759583 82.684998,150.058884 82.123680,157.241379 
	C81.931259,159.703415 83.037605,162.266953 83.556114,164.811249 
	C85.611053,164.811249 87.552322,164.811249 90.000130,164.811249 
	C90.000130,160.687042 90.039665,156.732285 89.991676,152.778595 
	C89.899399,145.175369 86.192940,140.759125 78.677666,138.982162 
	C61.801430,134.991837 44.939274,130.941971 27.843763,126.375969 
z"/>
<path fill="#000000" opacity="1.000000" stroke="none"
	d="
M79.999374,27.409700 
	C79.999893,36.513756 79.972786,45.158878 80.008987,53.803734 
	C80.035828,60.213448 81.152397,66.179337 86.790268,70.340401 
	C88.112946,71.316612 89.049797,72.809372 90.356483,73.814445 
	C101.193741,82.150291 99.952499,93.266541 97.532486,106.246094 
	C89.950104,102.454552 82.660316,99.415215 76.118874,95.211411 
	C73.812469,93.729233 72.259102,89.419090 72.200935,86.365105 
	C71.840073,67.419334 71.866661,48.461365 72.177162,29.514208 
	C72.212746,27.342577 74.359108,24.405949 76.346748,23.306791 
	C78.086655,22.344639 80.346306,24.086971 79.999374,27.409700 
M89.994225,84.972015 
	C87.245064,82.291451 84.495903,79.610893 81.499550,76.689301 
	C78.335587,85.444649 80.388687,93.168869 91.305397,94.509346 
	C90.942200,91.509514 90.592644,88.622353 89.994225,84.972015 
z"/>
<path fill="#000000" opacity="1.000000" stroke="none"
	d="
M114.200211,72.284500 
	C120.440514,67.411873 122.671242,61.476582 122.131927,53.849781 
	C121.546875,45.576214 122.168724,37.224083 121.913857,28.916965 
	C121.815231,25.702248 122.939339,23.366518 125.853027,23.273071 
	C128.720444,23.181110 130.113968,25.248587 130.084885,28.610682 
	C129.912247,48.565044 130.040695,68.521896 129.923218,88.477058 
	C129.913681,90.096436 129.130844,91.929482 128.173080,93.286057 
	C124.636749,98.294922 110.727455,104.826897 104.013237,104.678955 
	C104.013237,98.396683 103.447540,92.034157 104.176491,85.823586 
	C104.869232,79.921577 108.892761,75.658882 114.200211,72.284500 
M114.967972,81.545586 
	C111.773567,85.460732 109.823395,89.611519 112.327362,94.708481 
	C122.507339,90.163429 122.564232,90.059967 121.757225,77.124123 
	C119.514771,78.514908 117.503288,79.762451 114.967972,81.545586 
z"/>
<path fill="none" opacity="0" stroke="none"
	d="
M38.252377,103.956001 
	C52.864605,106.650925 67.068291,109.196114 81.212387,112.037857 
	C86.169640,113.033844 89.389977,116.354103 90.566963,121.365562 
	C82.429733,119.586807 74.137741,118.063866 66.006699,115.928177 
	C54.143585,112.812210 42.341404,109.430313 30.639685,105.758812 
	C27.875061,104.891396 25.614141,102.418579 23.416376,100.157730 
	C28.217716,101.412804 33.019054,102.667870 38.252377,103.956001 
z"/>
<path fill="none" opacity="0" stroke="none"
	d="
M105.381058,64.123123 
	C103.456078,65.806694 102.478279,68.150490 99.374382,66.055077 
	C95.408241,63.377567 95.288902,59.816700 96.482262,56.198021 
	C97.515816,53.063927 99.626633,50.285091 101.490707,46.937187 
	C103.855576,52.743652 109.689674,57.068615 105.381058,64.123123 
z"/>
<path fill="none" opacity="0" stroke="none"
	d="
M174.674637,127.692162 
	C168.265060,134.458878 159.878708,137.480728 151.241791,139.979095 
	C145.329041,141.689453 139.435776,143.544174 133.424332,144.817612 
	C125.085335,146.584106 118.956627,150.352386 119.165634,159.787872 
	C119.282814,165.077774 116.704338,165.605423 112.058319,164.690323 
	C112.058319,159.918625 111.534676,154.910522 112.181862,150.058609 
	C113.136528,142.901520 118.139435,139.781876 127.297218,137.903870 
	C141.744919,134.941071 156.061890,131.339874 170.428497,127.984474 
	C171.364960,127.765762 172.252884,127.339294 173.730682,127.158669 
	C174.423523,127.435966 174.549072,127.564064 174.674637,127.692162 
z"/>
<path fill="none" opacity="0" stroke="none"
	d="
M174.111969,127.113457 
	C174.490295,126.709793 175.054642,126.500542 175.618973,126.291290 
	C175.450562,126.630974 175.282150,126.970657 174.894196,127.501251 
	C174.549072,127.564064 174.423523,127.435966 174.111969,127.113457 
z"/>
<path fill="none" opacity="0" stroke="none"
	d="
M156.978745,105.000191 
	C164.057846,103.631088 170.695602,102.263481 178.762436,100.601425 
	C171.192642,107.157837 163.340393,109.980003 155.299271,111.892044 
	C141.031372,115.284691 126.616386,118.058716 111.271454,120.500198 
	C113.305649,118.311424 115.009285,115.619530 117.434593,114.026039 
	C125.451508,108.758736 135.022354,108.845154 144.028809,107.029503 
	C148.166458,106.195381 152.365936,105.668106 156.978745,105.000191 
z"/>
<path fill="none" opacity="0" stroke="none"
	d="
M28.071384,126.916336 
	C44.939274,130.941971 61.801430,134.991837 78.677666,138.982162 
	C86.192940,140.759125 89.899399,145.175369 89.991676,152.778595 
	C90.039665,156.732285 90.000130,160.687042 90.000130,164.811249 
	C87.552322,164.811249 85.611053,164.811249 83.556114,164.811249 
	C83.037605,162.266953 81.931259,159.703415 82.123680,157.241379 
	C82.684998,150.058884 77.714958,147.759583 72.494614,146.087921 
	C63.242340,143.125107 53.622616,141.213531 44.556198,137.800644 
	C38.591152,135.555237 33.326633,131.448837 27.718378,127.735001 
	C27.816019,127.168266 27.943701,127.042305 28.071384,126.916336 
z"/>
<path fill="none" opacity="0" stroke="none"
	d="
M27.494165,127.480469 
	C27.028360,127.185638 26.756725,126.704575 26.485092,126.223511 
	C26.937983,126.274330 27.390873,126.325150 27.957573,126.646149 
	C27.943701,127.042305 27.816019,127.168266 27.494165,127.480469 
z"/>
<path fill="none" opacity="0" stroke="none"
	d="
M90.118652,85.353607 
	C90.592644,88.622353 90.942200,91.509514 91.305397,94.509346 
	C80.388687,93.168869 78.335587,85.444649 81.499550,76.689301 
	C84.495903,79.610893 87.245064,82.291451 90.118652,85.353607 
z"/>
<path fill="none" opacity="0" stroke="none"
	d="
M115.229889,81.277786 
	C117.503288,79.762451 119.514771,78.514908 121.757225,77.124123 
	C122.564232,90.059967 122.507339,90.163429 112.327362,94.708481 
	C109.823395,89.611519 111.773567,85.460732 115.229889,81.277786 
z"/>
</svg>