<svg version="1.1" id="Layer_1" xmlns="http://www.w3.org/2000/svg" xmlns:xlink="http://www.w3.org/1999/xlink" x="0px" y="0px"
	 width="100%" viewBox="0 0 202 233" enable-background="new 0 0 202 233" xml:space="preserve">
<path fill="none" opacity="0" stroke="none"
	d="
M1.000000,83.000000 
	C1.000000,55.688824 1.000000,28.377647 1.000000,1.033236 
	C68.256577,1.033236 135.513184,1.033236 202.884888,1.033236 
	C202.884888,78.666550 202.884888,156.333252 202.884888,234.000000 
	C195.592148,234.000000 188.264816,234.000000 180.358582,233.645538 
	C177.356750,227.571991 174.933807,221.852905 172.469299,216.035767 
	C176.560822,213.752945 178.452866,210.114304 177.917175,205.518158 
	C177.452606,201.532394 175.335281,197.959915 171.285690,197.309540 
	C164.724045,196.255737 158.015121,196.118958 151.000000,195.565964 
	C151.000000,209.088058 151.000000,221.544037 151.000000,234.000000 
	C149.933334,234.000000 148.866653,234.000000 147.399307,233.609894 
	C142.483063,221.471085 138.141861,209.648239 133.221375,198.071625 
	C132.635864,196.694046 128.909836,196.271164 126.600510,196.150116 
	C125.233353,196.078430 122.948669,197.135910 122.509727,198.250183 
	C117.841156,210.101669 113.460106,222.066406 109.000000,234.000000 
	C108.250000,234.000000 107.500000,234.000000 106.375504,233.531342 
	C106.001083,222.252670 105.903366,211.441254 106.058891,200.633469 
	C106.107620,197.247177 105.118202,195.558395 101.536385,195.990234 
	C100.120659,196.160919 98.687294,196.185303 97.000000,196.293015 
	C97.000000,209.097122 97.000000,221.548553 97.000000,234.000000 
	C95.285645,234.000000 93.571281,234.000000 91.428299,233.531448 
	C90.999863,227.396591 91.197823,221.718491 90.860847,216.072311 
	C90.776855,214.664841 89.070541,212.306076 87.931702,212.193909 
	C83.374550,211.745117 78.747261,212.008591 74.231216,212.008591 
	C74.231216,214.959396 74.231216,217.241394 74.231216,219.816895 
	C76.845123,219.950531 79.260872,220.074036 82.039391,220.216095 
	C81.340736,223.672531 84.254753,228.269150 78.288857,228.931152 
	C72.805214,229.539627 67.065735,225.024872 66.031075,219.736359 
	C64.584129,212.340591 67.522346,205.364059 73.593407,204.193924 
	C78.439934,203.259766 83.610214,204.005371 88.752403,204.005371 
	C90.123039,196.702347 89.572937,196.040100 81.526321,196.001785 
	C79.193199,195.990677 76.849442,195.857544 74.528847,196.028488 
	C68.523033,196.470886 63.472790,198.792435 60.015469,203.946289 
	C54.517147,212.142700 55.678619,223.793335 62.620293,231.149582 
	C63.311192,231.881744 63.550888,233.039673 64.000000,234.000000 
	C60.969406,234.000000 57.938812,234.000000 54.454113,233.563736 
	C54.000008,231.157990 54.000008,229.188507 54.000008,226.851334 
	C46.976982,229.114685 40.314034,230.323013 35.207859,224.316452 
	C31.778503,220.282410 31.945635,211.208832 35.480228,207.179382 
	C40.627354,201.311630 47.103836,202.361664 53.786816,205.101807 
	C53.786816,202.292114 53.786816,199.854446 53.786816,197.484207 
	C42.769783,193.812439 32.835232,196.938522 28.061527,202.346649 
	C21.968822,209.249054 21.845911,225.197922 29.238571,230.836731 
	C30.118206,231.507675 30.426746,232.927368 31.000004,234.000000 
	C21.024498,234.000000 11.048996,234.000000 1.000000,234.000000 
	C1.000000,184.645798 1.000000,135.291550 1.276090,85.128059 
	C2.131664,85.429626 2.628469,86.593704 3.304053,87.642632 
	C7.679558,94.436073 11.323197,101.904907 16.686914,107.807251 
	C23.707487,115.532822 33.636261,119.192719 43.610474,121.706924 
	C52.578415,123.967468 61.889145,124.866562 70.859612,127.119102 
	C80.030434,129.421982 88.971298,132.640625 98.000015,135.454391 
	C98.000015,131.647217 97.732925,126.992348 98.064522,122.380524 
	C98.526848,115.950615 95.093071,111.670631 90.470581,108.294472 
	C87.777321,106.327377 84.465111,104.739677 81.210312,104.091675 
	C68.152084,101.491898 54.983406,99.452499 41.901573,96.964058 
	C28.707268,94.454216 15.059198,93.140457 4.181799,83.843796 
	C3.429988,83.201233 2.074664,83.264809 1.000000,83.000000 
M103.998825,166.452148 
	C103.998825,169.216202 103.998825,171.980255 103.998825,174.642487 
	C112.029938,174.642487 119.417694,174.642487 126.999893,174.642487 
	C126.999893,171.635361 126.998001,168.983383 127.000237,166.331406 
	C127.007256,158.001480 129.503906,155.026871 137.562363,152.978333 
	C145.407227,150.984085 153.296295,149.044922 160.951111,146.448212 
	C174.296844,141.921021 184.139603,133.235062 189.418686,119.985161 
	C190.877533,116.323608 191.386765,112.283714 192.331711,108.417412 
	C191.888519,108.292320 191.445328,108.167221 191.002136,108.042130 
	C186.197983,114.094254 179.971008,118.092087 172.619659,120.015167 
	C155.533829,124.484779 138.363144,128.628998 121.255852,133.018066 
	C112.721947,135.207535 105.576912,138.995224 104.928749,149.206238 
	C104.584892,154.623459 104.308731,160.044968 103.998825,166.452148 
M113.738914,132.051956 
	C114.645157,131.703918 115.524414,131.234604 116.461700,131.026031 
	C130.085953,127.994255 143.726593,125.035706 157.345825,121.981750 
	C172.043869,118.685883 184.638535,111.852318 193.204514,99.118210 
	C196.318878,94.488419 198.304871,89.099579 200.805710,84.057068 
	C200.385971,83.854355 199.966232,83.651642 199.546509,83.448936 
	C187.853973,91.975494 174.208878,94.810547 160.326355,97.012108 
	C148.103195,98.950500 135.828644,100.664108 123.713768,103.145683 
	C117.345337,104.450172 111.047737,107.269859 107.174889,112.783661 
	C101.990822,120.164246 104.406563,128.702377 103.998009,137.280182 
	C107.624870,135.342545 110.341805,133.891022 113.738914,132.051956 
M85.516045,174.998978 
	C89.606735,174.998978 93.697418,174.998978 97.991226,174.998978 
	C97.991226,167.135513 98.455872,159.932190 97.837143,152.823166 
	C97.381500,147.587967 96.571144,142.193222 91.893250,138.278778 
	C85.268837,132.735519 77.002510,131.941315 69.223534,130.138138 
	C48.625259,125.363411 26.913462,123.897331 10.062096,108.131760 
	C10.062096,109.807220 9.837923,111.021393 10.096038,112.122505 
	C13.461444,126.479225 21.353260,137.778748 34.853668,143.737030 
	C44.261021,147.888855 54.514027,150.200958 64.494316,152.954117 
	C72.534302,155.172028 74.993462,157.954773 74.999802,166.391678 
	C75.001892,169.162964 75.000137,171.934235 75.000137,174.998978 
	C78.582497,174.998978 81.557159,174.998978 85.516045,174.998978 
M98.999832,93.613754 
	C99.705917,87.185394 97.395775,81.768684 92.397675,78.024384 
	C82.102203,70.311569 78.597229,60.232838 79.887253,47.722305 
	C80.533409,41.455914 80.101532,35.064457 79.901543,28.737646 
	C79.865944,27.611559 78.803978,26.090218 77.791733,25.557623 
	C76.977524,25.129225 75.035980,25.528679 74.454529,26.252022 
	C73.316345,27.667952 72.107666,29.560936 72.094299,31.265598 
	C71.944031,50.430222 71.832458,69.600266 72.216850,88.758690 
	C72.277512,91.782211 74.052322,96.018219 76.413811,97.509293 
	C82.877289,101.590446 90.076546,104.506332 98.336494,108.544624 
	C98.615433,102.666740 98.807808,98.613083 98.999832,93.613754 
M104.068176,105.972183 
	C105.053276,106.297600 106.303017,107.182907 106.982498,106.861732 
	C113.709641,103.681999 120.510124,100.584824 126.891136,96.793243 
	C128.620300,95.765785 129.842026,92.477890 129.868103,90.211060 
	C130.096130,70.391846 129.910370,50.568096 130.087585,30.747843 
	C130.117188,27.436472 128.838928,25.265507 125.972229,25.276087 
	C123.075699,25.286777 121.825455,27.533789 121.913513,30.805584 
	C122.159920,39.960308 121.563484,49.153198 122.133331,58.278969 
	C122.613297,65.965347 118.679634,70.772446 113.291435,74.893616 
	C107.386940,79.409668 103.331963,84.612129 103.944527,92.572586 
	C104.263100,96.712578 104.007095,100.896790 104.068176,105.972183 
M109.485901,48.965790 
	C104.440140,43.243282 104.823891,36.305775 104.968811,29.360384 
	C105.111198,22.536972 105.171982,15.700685 104.873436,8.887362 
	C104.801712,7.250455 103.166328,5.682065 102.250061,4.082167 
	C100.793793,5.174466 99.040985,6.040680 97.979004,7.433594 
	C97.188995,8.469794 97.084694,10.181883 97.040726,11.604246 
	C96.922447,15.430031 96.753906,19.280762 97.045914,23.087797 
	C97.948433,34.854271 96.840675,46.025032 90.052750,56.273510 
	C87.240501,60.519466 88.728409,66.131454 92.249954,69.766380 
	C95.254166,72.867302 98.218460,76.006905 101.474319,79.416199 
	C105.033432,75.724045 108.529152,72.580009 111.436745,68.963181 
	C115.350548,64.094696 116.837181,60.718506 109.485901,48.965790 
z"/>
<path fill="#000000" opacity="1.000000" stroke="none"
	d="
M1.000000,83.333328 
	C2.074664,83.264809 3.429988,83.201233 4.181799,83.843796 
	C15.059198,93.140457 28.707268,94.454216 41.901573,96.964058 
	C54.983406,99.452499 68.152084,101.491898 81.210312,104.091675 
	C84.465111,104.739677 87.777321,106.327377 90.470581,108.294472 
	C95.093071,111.670631 98.526848,115.950615 98.064522,122.380524 
	C97.732925,126.992348 98.000015,131.647217 98.000015,135.454391 
	C88.971298,132.640625 80.030434,129.421982 70.859612,127.119102 
	C61.889145,124.866562 52.578415,123.967468 43.610474,121.706924 
	C33.636261,119.192719 23.707487,115.532822 16.686914,107.807251 
	C11.323197,101.904907 7.679558,94.436073 3.304053,87.642632 
	C2.628469,86.593704 2.131664,85.429626 1.276090,84.659401 
	C1.000000,84.555557 1.000000,84.111107 1.000000,83.333328 
M55.766201,108.915344 
	C44.993080,106.819679 34.219963,104.724014 22.598856,102.463394 
	C43.224770,118.084778 68.578056,115.588066 90.633423,124.076889 
	C89.825958,118.696991 86.626709,115.426926 82.336128,114.298889 
	C73.894020,112.079391 65.228676,110.709000 55.766201,108.915344 
z"/>
<path fill="#000000" opacity="1.000000" stroke="none"
	d="
M64.468658,234.000000 
	C63.550888,233.039673 63.311192,231.881744 62.620293,231.149582 
	C55.678619,223.793335 54.517147,212.142700 60.015469,203.946289 
	C63.472790,198.792435 68.523033,196.470886 74.528847,196.028488 
	C76.849442,195.857544 79.193199,195.990677 81.526321,196.001785 
	C89.572937,196.040100 90.123039,196.702347 88.752403,204.005371 
	C83.610214,204.005371 78.439934,203.259766 73.593407,204.193924 
	C67.522346,205.364059 64.584129,212.340591 66.031075,219.736359 
	C67.065735,225.024872 72.805214,229.539627 78.288857,228.931152 
	C84.254753,228.269150 81.340736,223.672531 82.039391,220.216095 
	C79.260872,220.074036 76.845123,219.950531 74.231216,219.816895 
	C74.231216,217.241394 74.231216,214.959396 74.231216,212.008591 
	C78.747261,212.008591 83.374550,211.745117 87.931702,212.193909 
	C89.070541,212.306076 90.776855,214.664841 90.860847,216.072311 
	C91.197823,221.718491 90.999863,227.396591 90.999840,233.531448 
	C82.312439,234.000000 73.624870,234.000000 64.468658,234.000000 
z"/>
<path fill="#000000" opacity="1.000000" stroke="none"
	d="
M151.449982,234.000000 
	C151.000000,221.544037 151.000000,209.088058 151.000000,195.565964 
	C158.015121,196.118958 164.724045,196.255737 171.285690,197.309540 
	C175.335281,197.959915 177.452606,201.532394 177.917175,205.518158 
	C178.452866,210.114304 176.560822,213.752945 172.469299,216.035767 
	C174.933807,221.852905 177.356750,227.571991 179.889862,233.645538 
	C176.969406,234.000000 173.938812,234.000000 170.446777,233.621033 
	C168.655502,229.981232 167.242706,226.751083 166.020721,223.450333 
	C164.945114,220.544922 163.240311,219.316071 160.000000,220.516251 
	C160.000000,225.121429 160.000000,229.560715 160.000000,234.000000 
	C157.299988,234.000000 154.599976,234.000000 151.449982,234.000000 
M160.015060,205.744232 
	C160.015060,207.698990 160.015060,209.653732 160.015060,212.932968 
	C163.185257,211.822433 165.768082,211.281937 167.876556,209.975739 
	C168.586655,209.535812 168.465088,205.966629 168.087616,205.847794 
	C165.629700,205.073929 162.997314,204.852188 160.418396,204.474457 
	C160.335587,204.462341 160.213745,204.716782 160.015060,205.744232 
z"/>
<path fill="#000000" opacity="1.000000" stroke="none"
	d="
M109.454102,234.000000 
	C113.460106,222.066406 117.841156,210.101669 122.509727,198.250183 
	C122.948669,197.135910 125.233353,196.078430 126.600510,196.150116 
	C128.909836,196.271164 132.635864,196.694046 133.221375,198.071625 
	C138.141861,209.648239 142.483063,221.471085 146.999313,233.609894 
	C143.969406,234.000000 140.938812,234.000000 137.800400,233.720612 
	C136.506485,227.666412 132.756851,226.148560 127.345627,226.944412 
	C125.090118,227.276138 122.745132,226.999557 120.158478,226.999557 
	C119.742455,229.513504 119.371223,231.756760 119.000000,234.000000 
	C115.969406,234.000000 112.938812,234.000000 109.454102,234.000000 
M124.955032,218.930405 
	C127.223442,218.930405 129.491852,218.930405 132.181396,218.930405 
	C130.767151,214.891800 129.543686,211.397995 128.320221,207.904190 
	C127.979691,207.941238 127.639160,207.978287 127.298637,208.015350 
	C126.264664,211.528336 125.230698,215.041336 124.955032,218.930405 
z"/>
<path fill="#000000" opacity="1.000000" stroke="none"
	d="
M31.468628,234.000000 
	C30.426746,232.927368 30.118206,231.507675 29.238571,230.836731 
	C21.845911,225.197922 21.968822,209.249054 28.061527,202.346649 
	C32.835232,196.938522 42.769783,193.812439 53.786816,197.484207 
	C53.786816,199.854446 53.786816,202.292114 53.786816,205.101807 
	C47.103836,202.361664 40.627354,201.311630 35.480228,207.179382 
	C31.945635,211.208832 31.778503,220.282410 35.207859,224.316452 
	C40.314034,230.323013 46.976982,229.114685 54.000008,226.851334 
	C54.000008,229.188507 54.000008,231.157990 54.000004,233.563736 
	C46.645748,234.000000 39.291496,234.000000 31.468628,234.000000 
z"/>
<path fill="#000000" opacity="1.000000" stroke="none"
	d="
M97.449982,234.000000 
	C97.000000,221.548553 97.000000,209.097122 97.000000,196.293015 
	C98.687294,196.185303 100.120659,196.160919 101.536385,195.990234 
	C105.118202,195.558395 106.107620,197.247177 106.058891,200.633469 
	C105.903366,211.441254 106.001083,222.252670 106.000504,233.531342 
	C103.299988,234.000000 100.599968,234.000000 97.449982,234.000000 
z"/>
<path fill="none" opacity="0" stroke="none"
	d="
M119.467941,234.000000 
	C119.371223,231.756760 119.742455,229.513504 120.158478,226.999557 
	C122.745132,226.999557 125.090118,227.276138 127.345627,226.944412 
	C132.756851,226.148560 136.506485,227.666412 137.346283,233.720612 
	C131.311951,234.000000 125.623917,234.000000 119.467941,234.000000 
z"/>
<path fill="none" opacity="0" stroke="none"
	d="
M160.454102,234.000000 
	C160.000000,229.560715 160.000000,225.121429 160.000000,220.516251 
	C163.240311,219.316071 164.945114,220.544922 166.020721,223.450333 
	C167.242706,226.751083 168.655502,229.981232 169.992676,233.621033 
	C166.969406,234.000000 163.938812,234.000000 160.454102,234.000000 
z"/>
<path fill="#000000" opacity="1.000000" stroke="none"
	d="
M104.000420,165.958344 
	C104.308731,160.044968 104.584892,154.623459 104.928749,149.206238 
	C105.576912,138.995224 112.721947,135.207535 121.255852,133.018066 
	C138.363144,128.628998 155.533829,124.484779 172.619659,120.015167 
	C179.971008,118.092087 186.197983,114.094254 191.002136,108.042130 
	C191.445328,108.167221 191.888519,108.292320 192.331711,108.417412 
	C191.386765,112.283714 190.877533,116.323608 189.418686,119.985161 
	C184.139603,133.235062 174.296844,141.921021 160.951111,146.448212 
	C153.296295,149.044922 145.407227,150.984085 137.562363,152.978333 
	C129.503906,155.026871 127.007256,158.001480 127.000237,166.331406 
	C126.998001,168.983383 126.999893,171.635361 126.999893,174.642487 
	C119.417694,174.642487 112.029938,174.642487 103.998825,174.642487 
	C103.998825,171.980255 103.998825,169.216202 104.000420,165.958344 
M173.163361,129.009460 
	C172.252853,129.339279 171.364929,129.765762 170.428467,129.984482 
	C156.061859,133.339859 141.744888,136.941071 127.297188,139.903870 
	C118.139488,141.781845 113.136513,144.901596 112.181862,152.058624 
	C111.534683,156.910553 112.058311,161.918640 112.058311,166.690308 
	C116.704414,167.605484 119.282791,167.077667 119.165649,161.787857 
	C118.956703,152.352402 125.085365,148.584076 133.424362,146.817596 
	C139.435806,145.544174 145.329056,143.689453 151.241806,141.979095 
	C159.878738,139.480728 168.265076,136.458878 175.113770,129.310318 
	C175.282166,128.970642 175.450562,128.630951 175.618958,128.291290 
	C175.054626,128.500549 174.490295,128.709808 173.163361,129.009460 
z"/>
<path fill="#000000" opacity="1.000000" stroke="none"
	d="
M113.398827,132.245728 
	C110.341805,133.891022 107.624870,135.342545 103.998009,137.280182 
	C104.406563,128.702377 101.990822,120.164246 107.174889,112.783661 
	C111.047737,107.269859 117.345337,104.450172 123.713768,103.145683 
	C135.828644,100.664108 148.103195,98.950500 160.326355,97.012108 
	C174.208878,94.810547 187.853973,91.975494 199.546509,83.448936 
	C199.966232,83.651642 200.385971,83.854355 200.805710,84.057068 
	C198.304871,89.099579 196.318878,94.488419 193.204514,99.118210 
	C184.638535,111.852318 172.043869,118.685883 157.345825,121.981750 
	C143.726593,125.035706 130.085953,127.994255 116.461700,131.026031 
	C115.524414,131.234604 114.645157,131.703918 113.398827,132.245728 
M116.087189,116.426826 
	C114.557571,118.617371 113.027954,120.807907 111.297424,123.286171 
	C126.738831,120.023628 141.064789,117.251335 155.254028,113.900101 
	C163.327194,111.993355 171.174957,109.136406 178.270828,103.056458 
	C176.586700,103.056458 175.739777,102.929733 174.942749,103.075615 
	C164.258087,105.031258 153.521210,106.756332 142.919312,109.092392 
	C134.108612,111.033783 125.458679,113.704819 116.087189,116.426826 
z"/>
<path fill="#000000" opacity="1.000000" stroke="none"
	d="
M85.023941,174.998978 
	C81.557159,174.998978 78.582497,174.998978 75.000137,174.998978 
	C75.000137,171.934235 75.001892,169.162964 74.999802,166.391678 
	C74.993462,157.954773 72.534302,155.172028 64.494316,152.954117 
	C54.514027,150.200958 44.261021,147.888855 34.853668,143.737030 
	C21.353260,137.778748 13.461444,126.479225 10.096038,112.122505 
	C9.837923,111.021393 10.062096,109.807220 10.062096,108.131760 
	C26.913462,123.897331 48.625259,125.363411 69.223534,130.138138 
	C77.002510,131.941315 85.268837,132.735519 91.893250,138.278778 
	C96.571144,142.193222 97.381500,147.587967 97.837143,152.823166 
	C98.455872,159.932190 97.991226,167.135513 97.991226,174.998978 
	C93.697418,174.998978 89.606735,174.998978 85.023941,174.998978 
M27.843737,128.375961 
	C27.390839,128.325150 26.937941,128.274353 26.485043,128.223557 
	C26.756712,128.704620 27.028381,129.185684 27.748472,130.175812 
	C33.326691,133.448868 38.591221,137.555252 44.556267,139.800674 
	C53.622684,143.213547 63.242409,145.125122 72.494675,148.087952 
	C77.714989,149.759613 82.685043,152.058945 82.123688,159.241425 
	C81.931259,161.703461 83.037605,164.266998 83.556099,166.811218 
	C85.611084,166.811218 87.552353,166.811218 90.000130,166.811218 
	C90.000130,162.686996 90.039665,158.732254 89.991676,154.778549 
	C89.899391,147.175323 86.192940,142.759140 78.677628,140.982162 
	C61.801399,136.991837 44.939251,132.941956 27.843737,128.375961 
z"/>
<path fill="#000000" opacity="1.000000" stroke="none"
	d="
M99.000000,94.086594 
	C98.807808,98.613083 98.615433,102.666740 98.336494,108.544624 
	C90.076546,104.506332 82.877289,101.590446 76.413811,97.509293 
	C74.052322,96.018219 72.277512,91.782211 72.216850,88.758690 
	C71.832458,69.600266 71.944031,50.430222 72.094299,31.265598 
	C72.107666,29.560936 73.316345,27.667952 74.454529,26.252022 
	C75.035980,25.528679 76.977524,25.129225 77.791733,25.557623 
	C78.803978,26.090218 79.865944,27.611559 79.901543,28.737646 
	C80.101532,35.064457 80.533409,41.455914 79.887253,47.722305 
	C78.597229,60.232838 82.102203,70.311569 92.397675,78.024384 
	C97.395775,81.768684 99.705917,87.185394 99.000000,94.086594 
M86.526558,83.021675 
	C84.839806,81.764832 83.153061,80.507988 81.424995,79.220360 
	C78.004684,86.721825 80.795944,96.141220 90.874931,96.071922 
	C91.298401,91.372505 91.486626,86.745529 86.526558,83.021675 
z"/>
<path fill="#000000" opacity="1.000000" stroke="none"
	d="
M104.039413,105.516602 
	C104.007095,100.896790 104.263100,96.712578 103.944527,92.572586 
	C103.331963,84.612129 107.386940,79.409668 113.291435,74.893616 
	C118.679634,70.772446 122.613297,65.965347 122.133331,58.278969 
	C121.563484,49.153198 122.159920,39.960308 121.913513,30.805584 
	C121.825455,27.533789 123.075699,25.286777 125.972229,25.276087 
	C128.838928,25.265507 130.117188,27.436472 130.087585,30.747843 
	C129.910370,50.568096 130.096130,70.391846 129.868103,90.211060 
	C129.842026,92.477890 128.620300,95.765785 126.891136,96.793243 
	C120.510124,100.584824 113.709641,103.681999 106.982498,106.861732 
	C106.303017,107.182907 105.053276,106.297600 104.039413,105.516602 
M114.461235,95.922302 
	C122.889046,93.185387 122.809410,86.672203 121.667503,79.687500 
	C114.871605,82.184090 111.850204,85.511223 111.190041,92.112885 
	C111.068542,93.327896 112.831322,94.731339 114.461235,95.922302 
z"/>
<path fill="#000000" opacity="1.000000" stroke="none"
	d="
M109.747604,49.240246 
	C116.837181,60.718506 115.350548,64.094696 111.436745,68.963181 
	C108.529152,72.580009 105.033432,75.724045 101.474319,79.416199 
	C98.218460,76.006905 95.254166,72.867302 92.249954,69.766380 
	C88.728409,66.131454 87.240501,60.519466 90.052750,56.273510 
	C96.840675,46.025032 97.948433,34.854271 97.045914,23.087797 
	C96.753906,19.280762 96.922447,15.430031 97.040726,11.604246 
	C97.084694,10.181883 97.188995,8.469794 97.979004,7.433594 
	C99.040985,6.040680 100.793793,5.174466 102.250061,4.082166 
	C103.166328,5.682065 104.801712,7.250455 104.873436,8.887362 
	C105.171982,15.700685 105.111198,22.536972 104.968811,29.360384 
	C104.823891,36.305775 104.440140,43.243282 109.747604,49.240246 
M97.365593,56.136757 
	C96.921288,58.682262 95.985771,61.260414 96.152237,63.765331 
	C96.380074,67.193649 100.887711,69.939262 103.085289,68.333389 
	C106.214111,66.046997 108.328781,63.144863 106.508064,59.036045 
	C105.063362,55.775787 103.375008,52.623497 101.518227,48.863045 
	C100.046425,51.572517 98.966316,53.560909 97.365593,56.136757 
z"/>
<path fill="none" opacity="0" stroke="none"
	d="
M56.210941,108.951347 
	C65.228676,110.709000 73.894020,112.079391 82.336128,114.298889 
	C86.626709,115.426926 89.825958,118.696991 90.633423,124.076889 
	C68.578056,115.588066 43.224770,118.084778 22.598856,102.463394 
	C34.219963,104.724014 44.993080,106.819679 56.210941,108.951347 
z"/>
<path fill="none" opacity="0" stroke="none"
	d="
M160.062576,205.295593 
	C160.213745,204.716782 160.335587,204.462341 160.418396,204.474457 
	C162.997314,204.852188 165.629700,205.073929 168.087616,205.847794 
	C168.465088,205.966629 168.586655,209.535812 167.876556,209.975739 
	C165.768082,211.281937 163.185257,211.822433 160.015060,212.932968 
	C160.015060,209.653732 160.015060,207.698990 160.062576,205.295593 
z"/>
<path fill="none" opacity="0" stroke="none"
	d="
M124.575882,218.742371 
	C125.230698,215.041336 126.264664,211.528336 127.298637,208.015350 
	C127.639160,207.978287 127.979691,207.941238 128.320221,207.904190 
	C129.543686,211.397995 130.767151,214.891800 132.181396,218.930405 
	C129.491852,218.930405 127.223442,218.930405 124.575882,218.742371 
z"/>
<path fill="none" opacity="0" stroke="none"
	d="
M174.674652,129.692139 
	C168.265076,136.458878 159.878738,139.480728 151.241806,141.979095 
	C145.329056,143.689453 139.435806,145.544174 133.424362,146.817596 
	C125.085365,148.584076 118.956703,152.352402 119.165649,161.787857 
	C119.282791,167.077667 116.704414,167.605484 112.058311,166.690308 
	C112.058311,161.918640 111.534683,156.910553 112.181862,152.058624 
	C113.136513,144.901596 118.139488,141.781845 127.297188,139.903870 
	C141.744888,136.941071 156.061859,133.339859 170.428467,129.984482 
	C171.364929,129.765762 172.252853,129.339279 173.730652,129.158661 
	C174.423508,129.435959 174.549072,129.564041 174.674652,129.692139 
z"/>
<path fill="none" opacity="0" stroke="none"
	d="
M174.111954,129.113464 
	C174.490295,128.709808 175.054626,128.500549 175.618958,128.291290 
	C175.450562,128.630951 175.282166,128.970642 174.894211,129.501221 
	C174.549072,129.564041 174.423508,129.435959 174.111954,129.113464 
z"/>
<path fill="none" opacity="0" stroke="none"
	d="
M116.412354,116.239731 
	C125.458679,113.704819 134.108612,111.033783 142.919312,109.092392 
	C153.521210,106.756332 164.258087,105.031258 174.942749,103.075615 
	C175.739777,102.929733 176.586700,103.056458 178.270828,103.056458 
	C171.174957,109.136406 163.327194,111.993355 155.254028,113.900101 
	C141.064789,117.251335 126.738831,120.023628 111.297424,123.286171 
	C113.027954,120.807907 114.557571,118.617371 116.412354,116.239731 
z"/>
<path fill="none" opacity="0" stroke="none"
	d="
M28.071371,128.916321 
	C44.939251,132.941956 61.801399,136.991837 78.677628,140.982162 
	C86.192940,142.759140 89.899391,147.175323 89.991676,154.778549 
	C90.039665,158.732254 90.000130,162.686996 90.000130,166.811218 
	C87.552353,166.811218 85.611084,166.811218 83.556099,166.811218 
	C83.037605,164.266998 81.931259,161.703461 82.123688,159.241425 
	C82.685043,152.058945 77.714989,149.759613 72.494675,148.087952 
	C63.242409,145.125122 53.622684,143.213547 44.556267,139.800674 
	C38.591221,137.555252 33.326691,133.448868 27.718414,129.735031 
	C27.816025,129.168274 27.943697,129.042297 28.071371,128.916321 
z"/>
<path fill="none" opacity="0" stroke="none"
	d="
M27.494202,129.480499 
	C27.028381,129.185684 26.756712,128.704620 26.485043,128.223557 
	C26.937941,128.274353 27.390839,128.325150 27.957554,128.646149 
	C27.943697,129.042297 27.816025,129.168274 27.494202,129.480499 
z"/>
<path fill="none" opacity="0" stroke="none"
	d="
M86.780136,83.284607 
	C91.486626,86.745529 91.298401,91.372505 90.881783,96.069809 
	C80.795944,96.141220 78.004684,86.721825 81.424995,79.220360 
	C83.153061,80.507988 84.839806,81.764832 86.780136,83.284607 
z"/>
<path fill="none" opacity="0" stroke="none"
	d="
M114.092804,95.985054 
	C112.831322,94.731339 111.068542,93.327896 111.190041,92.112885 
	C111.850204,85.511223 114.871605,82.184090 121.667442,79.687469 
	C122.809410,86.672203 122.889046,93.185387 114.092804,95.985054 
z"/>
<path fill="none" opacity="0" stroke="none"
	d="
M97.625900,55.843029 
	C98.966316,53.560909 100.046425,51.572517 101.518227,48.863045 
	C103.375008,52.623497 105.063362,55.775787 106.508064,59.036045 
	C108.328781,63.144863 106.214111,66.046997 103.085289,68.333389 
	C100.887711,69.939262 96.380074,67.193649 96.152237,63.765331 
	C95.985771,61.260414 96.921288,58.682262 97.625900,55.843029 
z"/>
</svg>